SplineFontDB: 3.0
FontName: ADM5
FullName: ADM5
FamilyName: ADM5
Weight: Regular

StartChar: less
Encoding: 60 60 1
Width: 1110
VWidth: 0
Flags: HW
LayerCount: 2
Fore
SplineSet
293 612 m 1
 293 827 l 1
 452 827 l 1
 452 1032 l 1
 611 1032 l 1
 611 1237 l 1
 769 1237 l 1
 769 1442 l 1
 984 1442 l 1
 984 1227 l 1
 826 1227 l 1
 826 1022 l 1
 667 1022 l 1
 667 817 l 1
 508 817 l 1
 508 623 l 1
 667 623 l 1
 667 418 l 1
 826 418 l 1
 826 213 l 1
 984 213 l 1
 984 -2 l 1
 769 -2 l 1
 769 203 l 1
 611 203 l 1
 611 408 l 1
 452 408 l 1
 452 612 l 1
 293 612 l 1
EndSplineSet
EndChar

StartChar: dollar
Encoding: 36 36 2
Width: 1110
VWidth: 0
Flags: HW
LayerCount: 2
Fore
SplineSet
135 817 m 1
 135 1032 l 1
 293 1032 l 1
 293 1237 l 1
 452 1237 l 1
 452 1442 l 1
 667 1442 l 1
 667 1237 l 1
 984 1237 l 1
 984 1022 l 1
 667 1022 l 1
 667 827 l 1
 826 827 l 1
 826 623 l 1
 984 623 l 1
 984 408 l 1
 826 408 l 1
 826 203 l 1
 667 203 l 1
 667 -2 l 1
 452 -2 l 1
 452 203 l 1
 350 203 l 1
 293 203 l 1
 135 203 l 1
 135 418 l 1
 452 418 l 1
 452 612 l 1
 293 612 l 1
 293 817 l 1
 135 817 l 1
350 1022 m 1
 350 827 l 1
 452 827 l 1
 452 1022 l 1
 350 1022 l 1
667 612 m 1
 667 418 l 1
 769 418 l 1
 769 612 l 1
 667 612 l 1
EndSplineSet
EndChar

StartChar: four
Encoding: 52 52 3
Width: 1110
VWidth: 0
Flags: HW
LayerCount: 2
Fore
SplineSet
826 1442 m 1
 826 623 l 1
 984 623 l 1
 984 408 l 1
 826 408 l 1
 826 -2 l 1
 611 -2 l 1
 611 408 l 1
 135 408 l 1
 135 827 l 1
 293 827 l 1
 293 1032 l 1
 452 1032 l 1
 452 1237 l 1
 611 1237 l 1
 611 1442 l 1
 826 1442 l 1
508 1022 m 1
 508 817 l 1
 350 817 l 1
 350 623 l 1
 611 623 l 1
 611 1022 l 1
 508 1022 l 1
EndSplineSet
EndChar

StartChar: comma
Encoding: 44 44 4
Width: 1110
VWidth: 0
Flags: HW
LayerCount: 2
Fore
SplineSet
293 -412 m 1
 293 -197 l 1
 452 -197 l 1
 452 213 l 1
 667 213 l 1
 667 -207 l 1
 508 -207 l 1
 508 -412 l 1
 293 -412 l 1
EndSplineSet
EndChar

StartChar: D
Encoding: 68 68 5
Width: 1110
VWidth: 0
Flags: HW
LayerCount: 2
Fore
SplineSet
135 1442 m 1
 667 1442 l 1
 667 1237 l 1
 826 1237 l 1
 826 1032 l 1
 984 1032 l 1
 984 408 l 1
 826 408 l 1
 826 203 l 1
 667 203 l 1
 667 -2 l 1
 135 -2 l 1
 135 1442 l 1
611 1227 m 1
 350 1227 l 1
 350 213 l 1
 611 213 l 1
 611 418 l 1
 769 418 l 1
 769 1022 l 1
 611 1022 l 1
 611 1227 l 1
EndSplineSet
EndChar

StartChar: H
Encoding: 72 72 6
Width: 1110
VWidth: 0
Flags: HW
LayerCount: 2
Fore
SplineSet
350 1442 m 1
 350 827 l 1
 769 827 l 1
 769 1442 l 1
 984 1442 l 1
 984 -2 l 1
 769 -2 l 1
 769 612 l 1
 350 612 l 1
 350 -2 l 1
 135 -2 l 1
 135 1442 l 1
 350 1442 l 1
EndSplineSet
EndChar

StartChar: L
Encoding: 76 76 7
Width: 1110
VWidth: 0
Flags: HW
LayerCount: 2
Fore
SplineSet
350 1442 m 1
 350 213 l 1
 984 213 l 1
 984 -2 l 1
 135 -2 l 1
 135 1442 l 1
 350 1442 l 1
EndSplineSet
EndChar

StartChar: P
Encoding: 80 80 8
Width: 1110
VWidth: 0
Flags: HW
LayerCount: 2
Fore
SplineSet
135 1442 m 1
 826 1442 l 1
 826 1237 l 1
 984 1237 l 1
 984 817 l 1
 826 817 l 1
 826 612 l 1
 350 612 l 1
 350 -2 l 1
 135 -2 l 1
 135 1442 l 1
769 1227 m 1
 350 1227 l 1
 350 827 l 1
 769 827 l 1
 769 1227 l 1
EndSplineSet
EndChar

StartChar: five
Encoding: 53 53 9
Width: 1110
VWidth: 0
Flags: HW
LayerCount: 2
Fore
SplineSet
135 203 m 1
 135 418 l 1
 350 418 l 1
 350 213 l 1
 769 213 l 1
 769 817 l 1
 135 817 l 1
 135 1442 l 1
 984 1442 l 1
 984 1227 l 1
 350 1227 l 1
 350 1032 l 1
 826 1032 l 1
 826 827 l 1
 984 827 l 1
 984 203 l 1
 826 203 l 1
 826 -2 l 1
 293 -2 l 1
 293 203 l 1
 135 203 l 1
EndSplineSet
EndChar

StartChar: T
Encoding: 84 84 10
Width: 1110
VWidth: 0
Flags: HW
LayerCount: 2
Fore
SplineSet
135 1227 m 1
 135 1442 l 1
 984 1442 l 1
 984 1227 l 1
 667 1227 l 1
 667 -2 l 1
 452 -2 l 1
 452 1227 l 1
 135 1227 l 1
EndSplineSet
EndChar

StartChar: underscore
Encoding: 95 95 11
Width: 1110
VWidth: 0
Flags: HW
LayerCount: 2
Fore
SplineSet
135 -2 m 1
 135 213 l 1
 984 213 l 1
 984 -2 l 1
 135 -2 l 1
EndSplineSet
EndChar

StartChar: X
Encoding: 88 88 12
Width: 1110
VWidth: 0
Flags: HW
LayerCount: 2
Fore
SplineSet
350 1442 m 1
 350 1032 l 1
 508 1032 l 1
 508 827 l 1
 611 827 l 1
 611 1032 l 1
 769 1032 l 1
 769 1442 l 1
 984 1442 l 1
 984 1022 l 1
 826 1022 l 1
 826 817 l 1
 667 817 l 1
 667 623 l 1
 826 623 l 1
 826 418 l 1
 984 418 l 1
 984 -2 l 1
 769 -2 l 1
 769 408 l 1
 611 408 l 1
 611 612 l 1
 508 612 l 1
 508 408 l 1
 350 408 l 1
 350 -2 l 1
 135 -2 l 1
 135 418 l 1
 293 418 l 1
 293 623 l 1
 452 623 l 1
 452 817 l 1
 293 817 l 1
 293 1022 l 1
 135 1022 l 1
 135 1442 l 1
 350 1442 l 1
EndSplineSet
EndChar

StartChar: bar
Encoding: 124 124 13
Width: 1110
VWidth: 0
Flags: HW
LayerCount: 2
Fore
SplineSet
667 1442 m 1
 667 817 l 1
 452 817 l 1
 452 1442 l 1
 667 1442 l 1
667 623 m 1
 667 -2 l 1
 452 -2 l 1
 452 623 l 1
 667 623 l 1
EndSplineSet
EndChar

StartChar: d
Encoding: 100 100 14
Width: 1110
VWidth: 0
Flags: HW
LayerCount: 2
Fore
SplineSet
984 1442 m 1
 984 -2 l 1
 769 -2 l 1
 769 203 l 1
 667 203 l 1
 667 -2 l 1
 293 -2 l 1
 293 203 l 1
 135 203 l 1
 135 827 l 1
 293 827 l 1
 293 1032 l 1
 667 1032 l 1
 667 827 l 1
 769 827 l 1
 769 1442 l 1
 984 1442 l 1
611 817 m 1
 350 817 l 1
 350 213 l 1
 611 213 l 1
 611 418 l 1
 769 418 l 1
 769 612 l 1
 611 612 l 1
 611 817 l 1
EndSplineSet
EndChar

StartChar: h
Encoding: 104 104 15
Width: 1110
VWidth: 0
Flags: HW
LayerCount: 2
Fore
SplineSet
350 1442 m 1
 350 827 l 1
 452 827 l 1
 452 1032 l 1
 826 1032 l 1
 826 827 l 1
 984 827 l 1
 984 -2 l 1
 769 -2 l 1
 769 817 l 1
 508 817 l 1
 508 612 l 1
 350 612 l 1
 350 -2 l 1
 135 -2 l 1
 135 1442 l 1
 350 1442 l 1
EndSplineSet
EndChar

StartChar: l
Encoding: 108 108 16
Width: 1110
VWidth: 0
Flags: HW
LayerCount: 2
Fore
SplineSet
293 1227 m 1
 293 1442 l 1
 667 1442 l 1
 667 213 l 1
 826 213 l 1
 826 -2 l 1
 293 -2 l 1
 293 213 l 1
 452 213 l 1
 452 1227 l 1
 293 1227 l 1
EndSplineSet
EndChar

StartChar: p
Encoding: 112 112 17
Width: 1110
VWidth: 0
Flags: HW
LayerCount: 2
Fore
SplineSet
769 817 m 1
 508 817 l 1
 508 612 l 1
 350 612 l 1
 350 418 l 1
 508 418 l 1
 508 213 l 1
 769 213 l 1
 769 817 l 1
452 1032 m 1
 826 1032 l 1
 826 827 l 1
 984 827 l 1
 984 203 l 1
 826 203 l 1
 826 -2 l 1
 452 -2 l 1
 452 203 l 1
 350 203 l 1
 350 -412 l 1
 135 -412 l 1
 135 1032 l 1
 350 1032 l 1
 350 827 l 1
 452 827 l 1
 452 1032 l 1
EndSplineSet
EndChar

StartChar: t
Encoding: 116 116 18
Width: 1110
VWidth: 0
Flags: HW
LayerCount: 2
Fore
SplineSet
135 817 m 1
 135 1032 l 1
 293 1032 l 1
 293 1442 l 1
 508 1442 l 1
 508 1032 l 1
 667 1032 l 1
 667 817 l 1
 508 817 l 1
 508 213 l 1
 611 213 l 1
 611 418 l 1
 826 418 l 1
 826 203 l 1
 667 203 l 1
 667 -2 l 1
 452 -2 l 1
 452 203 l 1
 293 203 l 1
 293 817 l 1
 135 817 l 1
EndSplineSet
EndChar

StartChar: x
Encoding: 120 120 19
Width: 1110
VWidth: 0
Flags: HW
LayerCount: 2
Fore
SplineSet
135 817 m 1
 135 1032 l 1
 350 1032 l 1
 350 827 l 1
 508 827 l 1
 508 623 l 1
 611 623 l 1
 611 827 l 1
 769 827 l 1
 769 1032 l 1
 984 1032 l 1
 984 817 l 1
 826 817 l 1
 826 612 l 1
 667 612 l 1
 667 418 l 1
 826 418 l 1
 826 213 l 1
 984 213 l 1
 984 -2 l 1
 769 -2 l 1
 769 203 l 1
 611 203 l 1
 611 408 l 1
 508 408 l 1
 508 203 l 1
 350 203 l 1
 350 -2 l 1
 135 -2 l 1
 135 213 l 1
 293 213 l 1
 293 418 l 1
 452 418 l 1
 452 612 l 1
 293 612 l 1
 293 817 l 1
 135 817 l 1
EndSplineSet
EndChar

StartChar: parenright
Encoding: 41 41 20
Width: 1110
VWidth: 0
Flags: HW
LayerCount: 2
Fore
SplineSet
293 1227 m 1
 293 1442 l 1
 508 1442 l 1
 508 1237 l 1
 667 1237 l 1
 667 1032 l 1
 826 1032 l 1
 826 408 l 1
 667 408 l 1
 667 203 l 1
 508 203 l 1
 508 -2 l 1
 293 -2 l 1
 293 213 l 1
 452 213 l 1
 452 418 l 1
 611 418 l 1
 611 1022 l 1
 452 1022 l 1
 452 1227 l 1
 293 1227 l 1
EndSplineSet
EndChar

StartChar: zero
Encoding: 48 48 21
Width: 1110
VWidth: 0
Flags: HW
LayerCount: 2
Fore
SplineSet
769 1227 m 1
 350 1227 l 1
 350 623 l 1
 452 623 l 1
 452 827 l 1
 611 827 l 1
 611 1032 l 1
 769 1032 l 1
 769 1227 l 1
293 1442 m 1
 826 1442 l 1
 826 1237 l 1
 984 1237 l 1
 984 203 l 1
 826 203 l 1
 826 -2 l 1
 293 -2 l 1
 293 203 l 1
 135 203 l 1
 135 1237 l 1
 293 1237 l 1
 293 1442 l 1
667 817 m 1
 667 612 l 1
 508 612 l 1
 508 408 l 1
 350 408 l 1
 350 213 l 1
 769 213 l 1
 769 817 l 1
 667 817 l 1
EndSplineSet
EndChar

StartChar: quotesingle
Encoding: 39 39 22
Width: 1110
VWidth: 0
Flags: HW
LayerCount: 2
Fore
SplineSet
293 817 m 1
 293 1032 l 1
 452 1032 l 1
 452 1237 l 1
 611 1237 l 1
 611 1442 l 1
 826 1442 l 1
 826 1227 l 1
 667 1227 l 1
 667 1022 l 1
 508 1022 l 1
 508 817 l 1
 293 817 l 1
EndSplineSet
EndChar

StartChar: braceleft
Encoding: 123 123 23
Width: 1110
VWidth: 0
Flags: HW
LayerCount: 2
Fore
SplineSet
135 612 m 1
 135 827 l 1
 452 827 l 1
 452 1237 l 1
 611 1237 l 1
 611 1442 l 1
 984 1442 l 1
 984 1227 l 1
 667 1227 l 1
 667 817 l 1
 508 817 l 1
 508 623 l 1
 667 623 l 1
 667 213 l 1
 984 213 l 1
 984 -2 l 1
 611 -2 l 1
 611 203 l 1
 452 203 l 1
 452 612 l 1
 135 612 l 1
EndSplineSet
EndChar

StartChar: 57504
Encoding: 256 57504 24
Width: 1110
VWidth: 0
Flags: HW
LayerCount: 2
Fore
SplineSet
452 1022 m 1
 452 1237 l 1
 611 1237 l 1
 611 1442 l 1
 826 1442 l 1
 826 1237 l 1
 984 1237 l 1
 984 1022 l 1
 826 1022 l 1
 826 203 l 1
 667 203 l 1
 667 -2 l 1
 508 -2 l 1
 508 -207 l 1
 135 -207 l 1
 135 8 l 1
 452 8 l 1
 452 213 l 1
 611 213 l 1
 611 1022 l 1
 452 1022 l 1
350 1442 m 1
 350 203 l 1
 135 203 l 1
 135 1442 l 1
 350 1442 l 1
EndSplineSet
EndChar

StartChar: 57505
Encoding: 257 57505 25
Width: 1110
VWidth: 0
Flags: HW
LayerCount: 2
Fore
SplineSet
350 1442 m 1
 350 827 l 1
 667 827 l 1
 667 612 l 1
 508 612 l 1
 508 418 l 1
 667 418 l 1
 667 213 l 1
 769 213 l 1
 769 623 l 1
 984 623 l 1
 984 -207 l 1
 769 -207 l 1
 769 -2 l 1
 611 -2 l 1
 611 203 l 1
 508 203 l 1
 508 -207 l 1
 293 -207 l 1
 293 612 l 1
 135 612 l 1
 135 1442 l 1
 350 1442 l 1
EndSplineSet
EndChar

StartChar: 57506
Encoding: 258 57506 26
Width: 1110
VWidth: 0
Flags: HW
LayerCount: 2
Fore
SplineSet
769 1227 m 1
 350 1227 l 1
 350 1032 l 1
 769 1032 l 1
 769 1227 l 1
293 1442 m 1
 826 1442 l 1
 826 1237 l 1
 984 1237 l 1
 984 -2 l 1
 135 -2 l 1
 135 1237 l 1
 293 1237 l 1
 293 1442 l 1
769 817 m 1
 350 817 l 1
 350 623 l 1
 508 623 l 1
 508 213 l 1
 611 213 l 1
 611 623 l 1
 769 623 l 1
 769 817 l 1
EndSplineSet
EndChar

StartChar: 57520
Encoding: 259 57520 27
Width: 1110
VWidth: 0
Flags: HW
LayerCount: 2
Fore
SplineSet
135 -207 m 1
 135 1647 l 1
 350 1647 l 1
 350 1442 l 1
 508 1442 l 1
 508 1237 l 1
 667 1237 l 1
 667 1032 l 1
 826 1032 l 1
 826 827 l 1
 984 827 l 1
 984 612 l 1
 826 612 l 1
 826 408 l 1
 667 408 l 1
 667 203 l 1
 508 203 l 1
 508 -2 l 1
 350 -2 l 1
 350 -207 l 1
 135 -207 l 1
EndSplineSet
EndChar

StartChar: 57521
Encoding: 260 57521 28
Width: 1110
VWidth: 0
Flags: HW
LayerCount: 2
Fore
SplineSet
135 1432 m 1
 135 1647 l 1
 350 1647 l 1
 350 1442 l 1
 508 1442 l 1
 508 1237 l 1
 667 1237 l 1
 667 1032 l 1
 826 1032 l 1
 826 827 l 1
 984 827 l 1
 984 612 l 1
 826 612 l 1
 826 408 l 1
 667 408 l 1
 667 203 l 1
 508 203 l 1
 508 -2 l 1
 350 -2 l 1
 350 -207 l 1
 135 -207 l 1
 135 8 l 1
 293 8 l 1
 293 213 l 1
 452 213 l 1
 452 418 l 1
 611 418 l 1
 611 623 l 1
 769 623 l 1
 769 817 l 1
 611 817 l 1
 611 1022 l 1
 452 1022 l 1
 452 1227 l 1
 293 1227 l 1
 293 1432 l 1
 135 1432 l 1
EndSplineSet
EndChar

StartChar: 57522
Encoding: 261 57522 29
Width: 1110
VWidth: 0
Flags: HW
LayerCount: 2
Fore
SplineSet
135 612 m 1
 135 827 l 1
 293 827 l 1
 293 1032 l 1
 452 1032 l 1
 452 1237 l 1
 611 1237 l 1
 611 1442 l 1
 769 1442 l 1
 769 1647 l 1
 984 1647 l 1
 984 -207 l 1
 769 -207 l 1
 769 -2 l 1
 611 -2 l 1
 611 203 l 1
 452 203 l 1
 452 408 l 1
 293 408 l 1
 293 612 l 1
 135 612 l 1
EndSplineSet
EndChar

StartChar: 57523
Encoding: 262 57523 30
Width: 1110
VWidth: 0
Flags: HW
LayerCount: 2
Fore
SplineSet
135 612 m 1
 135 827 l 1
 293 827 l 1
 293 1032 l 1
 452 1032 l 1
 452 1237 l 1
 611 1237 l 1
 611 1442 l 1
 769 1442 l 1
 769 1647 l 1
 984 1647 l 1
 984 1432 l 1
 826 1432 l 1
 826 1227 l 1
 667 1227 l 1
 667 1022 l 1
 508 1022 l 1
 508 817 l 1
 350 817 l 1
 350 623 l 1
 508 623 l 1
 508 418 l 1
 667 418 l 1
 667 213 l 1
 826 213 l 1
 826 8 l 1
 984 8 l 1
 984 -207 l 1
 769 -207 l 1
 769 -2 l 1
 611 -2 l 1
 611 203 l 1
 452 203 l 1
 452 408 l 1
 293 408 l 1
 293 612 l 1
 135 612 l 1
EndSplineSet
EndChar

StartChar: ampersand
Encoding: 38 38 31
Width: 1110
VWidth: 0
Flags: HW
LayerCount: 2
Fore
SplineSet
508 1227 m 1
 508 827 l 1
 611 827 l 1
 611 1227 l 1
 508 1227 l 1
452 1237 m 1
 452 1442 l 1
 667 1442 l 1
 667 1237 l 1
 826 1237 l 1
 826 817 l 1
 667 817 l 1
 667 418 l 1
 769 418 l 1
 769 623 l 1
 984 623 l 1
 984 408 l 1
 826 408 l 1
 826 213 l 1
 984 213 l 1
 984 -2 l 1
 769 -2 l 1
 769 203 l 1
 667 203 l 1
 667 -2 l 1
 293 -2 l 1
 293 203 l 1
 135 203 l 1
 135 623 l 1
 293 623 l 1
 293 1237 l 1
 452 1237 l 1
350 612 m 1
 350 213 l 1
 611 213 l 1
 611 408 l 1
 452 408 l 1
 452 612 l 1
 350 612 l 1
EndSplineSet
EndChar

StartChar: slash
Encoding: 47 47 32
Width: 1110
VWidth: 0
Flags: HW
LayerCount: 2
Fore
SplineSet
984 1442 m 1
 984 1022 l 1
 826 1022 l 1
 826 817 l 1
 667 817 l 1
 667 612 l 1
 508 612 l 1
 508 408 l 1
 350 408 l 1
 350 -2 l 1
 135 -2 l 1
 135 418 l 1
 293 418 l 1
 293 623 l 1
 452 623 l 1
 452 827 l 1
 611 827 l 1
 611 1032 l 1
 769 1032 l 1
 769 1442 l 1
 984 1442 l 1
EndSplineSet
EndChar

StartChar: C
Encoding: 67 67 33
Width: 1110
VWidth: 0
Flags: HW
LayerCount: 2
Fore
SplineSet
769 1227 m 1
 350 1227 l 1
 350 213 l 1
 769 213 l 1
 769 418 l 1
 984 418 l 1
 984 203 l 1
 826 203 l 1
 826 -2 l 1
 293 -2 l 1
 293 203 l 1
 135 203 l 1
 135 1237 l 1
 293 1237 l 1
 293 1442 l 1
 826 1442 l 1
 826 1237 l 1
 984 1237 l 1
 984 1022 l 1
 769 1022 l 1
 769 1227 l 1
EndSplineSet
EndChar

StartChar: G
Encoding: 71 71 34
Width: 1110
VWidth: 0
Flags: HW
LayerCount: 2
Fore
SplineSet
611 408 m 1
 611 623 l 1
 984 623 l 1
 984 -2 l 1
 293 -2 l 1
 293 203 l 1
 135 203 l 1
 135 1237 l 1
 293 1237 l 1
 293 1442 l 1
 984 1442 l 1
 984 1227 l 1
 350 1227 l 1
 350 213 l 1
 769 213 l 1
 769 408 l 1
 611 408 l 1
EndSplineSet
EndChar

StartChar: asterisk
Encoding: 42 42 35
Width: 1110
VWidth: 0
Flags: HW
LayerCount: 2
Fore
SplineSet
135 817 m 1
 135 1032 l 1
 350 1032 l 1
 350 827 l 1
 452 827 l 1
 452 1237 l 1
 667 1237 l 1
 667 827 l 1
 769 827 l 1
 769 1032 l 1
 984 1032 l 1
 984 817 l 1
 826 817 l 1
 826 623 l 1
 984 623 l 1
 984 408 l 1
 769 408 l 1
 769 612 l 1
 667 612 l 1
 667 203 l 1
 452 203 l 1
 452 612 l 1
 350 612 l 1
 350 408 l 1
 135 408 l 1
 135 623 l 1
 293 623 l 1
 293 817 l 1
 135 817 l 1
EndSplineSet
EndChar

StartChar: K
Encoding: 75 75 36
Width: 1110
VWidth: 0
Flags: HW
LayerCount: 2
Fore
SplineSet
350 1442 m 1
 350 827 l 1
 452 827 l 1
 452 1032 l 1
 611 1032 l 1
 611 1237 l 1
 769 1237 l 1
 769 1442 l 1
 984 1442 l 1
 984 1227 l 1
 826 1227 l 1
 826 1022 l 1
 667 1022 l 1
 667 817 l 1
 508 817 l 1
 508 623 l 1
 667 623 l 1
 667 418 l 1
 826 418 l 1
 826 213 l 1
 984 213 l 1
 984 -2 l 1
 769 -2 l 1
 769 203 l 1
 611 203 l 1
 611 408 l 1
 452 408 l 1
 452 612 l 1
 350 612 l 1
 350 -2 l 1
 135 -2 l 1
 135 1442 l 1
 350 1442 l 1
EndSplineSet
EndChar

StartChar: O
Encoding: 79 79 37
Width: 1110
VWidth: 0
Flags: HW
LayerCount: 2
Fore
SplineSet
769 1227 m 1
 350 1227 l 1
 350 213 l 1
 769 213 l 1
 769 1227 l 1
293 1442 m 1
 826 1442 l 1
 826 1237 l 1
 984 1237 l 1
 984 203 l 1
 826 203 l 1
 826 -2 l 1
 293 -2 l 1
 293 203 l 1
 135 203 l 1
 135 1237 l 1
 293 1237 l 1
 293 1442 l 1
EndSplineSet
EndChar

StartChar: S
Encoding: 83 83 38
Width: 1110
VWidth: 0
Flags: HW
LayerCount: 2
Fore
SplineSet
135 203 m 1
 135 418 l 1
 350 418 l 1
 350 213 l 1
 769 213 l 1
 769 612 l 1
 293 612 l 1
 293 817 l 1
 135 817 l 1
 135 1237 l 1
 293 1237 l 1
 293 1442 l 1
 826 1442 l 1
 826 1237 l 1
 984 1237 l 1
 984 1022 l 1
 769 1022 l 1
 769 1227 l 1
 350 1227 l 1
 350 827 l 1
 826 827 l 1
 826 623 l 1
 984 623 l 1
 984 203 l 1
 826 203 l 1
 826 -2 l 1
 293 -2 l 1
 293 203 l 1
 135 203 l 1
EndSplineSet
EndChar

StartChar: W
Encoding: 87 87 39
Width: 1110
VWidth: 0
Flags: HW
LayerCount: 2
Fore
SplineSet
350 1442 m 1
 350 418 l 1
 452 418 l 1
 452 827 l 1
 667 827 l 1
 667 418 l 1
 769 418 l 1
 769 1442 l 1
 984 1442 l 1
 984 -2 l 1
 769 -2 l 1
 769 203 l 1
 667 203 l 2
 561 203 456 203 350 203 c 1
 350 -2 l 1
 135 -2 l 1
 135 1442 l 1
 350 1442 l 1
EndSplineSet
EndChar

StartChar: exclam
Encoding: 33 33 40
Width: 1110
VWidth: 0
Flags: HW
LayerCount: 2
Fore
SplineSet
452 -2 m 1
 452 213 l 1
 667 213 l 1
 667 -2 l 1
 452 -2 l 1
667 1442 m 1
 667 408 l 1
 452 408 l 1
 452 1442 l 1
 667 1442 l 1
EndSplineSet
EndChar

StartChar: c
Encoding: 99 99 41
Width: 1110
VWidth: 0
Flags: HW
LayerCount: 2
Fore
SplineSet
984 817 m 1
 350 817 l 1
 350 213 l 1
 984 213 l 1
 984 -2 l 1
 293 -2 l 1
 293 203 l 1
 135 203 l 1
 135 827 l 1
 293 827 l 1
 293 1032 l 1
 984 1032 l 1
 984 817 l 1
EndSplineSet
EndChar

StartChar: g
Encoding: 103 103 42
Width: 1110
VWidth: 0
Flags: HW
LayerCount: 2
Fore
SplineSet
293 -412 m 1
 293 -197 l 1
 769 -197 l 1
 769 203 l 1
 667 203 l 1
 667 -2 l 1
 293 -2 l 1
 293 203 l 1
 135 203 l 1
 135 827 l 1
 293 827 l 1
 293 1032 l 1
 667 1032 l 1
 667 827 l 1
 769 827 l 1
 769 1032 l 1
 984 1032 l 1
 984 -207 l 1
 826 -207 l 1
 826 -412 l 1
 293 -412 l 1
611 817 m 1
 350 817 l 1
 350 213 l 1
 611 213 l 1
 611 418 l 1
 769 418 l 1
 769 612 l 1
 611 612 l 1
 611 817 l 1
EndSplineSet
EndChar

StartChar: k
Encoding: 107 107 43
Width: 1110
VWidth: 0
Flags: HW
LayerCount: 2
Fore
SplineSet
350 1442 m 1
 350 623 l 1
 452 623 l 1
 452 827 l 1
 611 827 l 1
 611 1032 l 1
 826 1032 l 1
 826 817 l 1
 667 817 l 1
 667 612 l 1
 508 612 l 1
 508 418 l 1
 667 418 l 1
 667 213 l 1
 826 213 l 1
 826 -2 l 1
 611 -2 l 1
 611 203 l 1
 452 203 l 1
 452 408 l 1
 350 408 l 1
 350 -2 l 1
 135 -2 l 1
 135 1442 l 1
 350 1442 l 1
EndSplineSet
EndChar

StartChar: equal
Encoding: 61 61 44
Width: 1110
VWidth: 0
Flags: HW
LayerCount: 2
Fore
SplineSet
135 817 m 1
 135 1032 l 1
 984 1032 l 1
 984 817 l 1
 135 817 l 1
135 408 m 1
 135 623 l 1
 984 623 l 1
 984 408 l 1
 135 408 l 1
EndSplineSet
EndChar

StartChar: o
Encoding: 111 111 45
Width: 1110
VWidth: 0
Flags: HW
LayerCount: 2
Fore
SplineSet
769 817 m 1
 350 817 l 1
 350 213 l 1
 769 213 l 1
 769 817 l 1
293 1032 m 1
 826 1032 l 1
 826 827 l 1
 984 827 l 1
 984 203 l 1
 826 203 l 1
 826 -2 l 1
 293 -2 l 1
 293 203 l 1
 135 203 l 1
 135 827 l 1
 293 827 l 1
 293 1032 l 1
EndSplineSet
EndChar

StartChar: s
Encoding: 115 115 46
Width: 1110
VWidth: 0
Flags: HW
LayerCount: 2
Fore
SplineSet
135 612 m 1
 135 827 l 1
 293 827 l 1
 293 1032 l 1
 984 1032 l 1
 984 817 l 1
 350 817 l 1
 350 623 l 1
 826 623 l 1
 826 418 l 1
 984 418 l 1
 984 203 l 1
 826 203 l 1
 826 -2 l 1
 135 -2 l 1
 135 213 l 1
 769 213 l 1
 769 408 l 1
 293 408 l 1
 293 612 l 1
 135 612 l 1
EndSplineSet
EndChar

StartChar: plus
Encoding: 43 43 47
Width: 1110
VWidth: 0
Flags: HW
LayerCount: 2
Fore
SplineSet
135 612 m 1
 135 827 l 1
 452 827 l 1
 452 1237 l 1
 667 1237 l 1
 667 827 l 1
 984 827 l 1
 984 612 l 1
 667 612 l 1
 667 203 l 1
 452 203 l 1
 452 612 l 1
 135 612 l 1
EndSplineSet
EndChar

StartChar: w
Encoding: 119 119 48
Width: 1110
VWidth: 0
Flags: HW
LayerCount: 2
Fore
SplineSet
350 1032 m 1
 350 213 l 1
 452 213 l 1
 452 623 l 1
 667 623 l 1
 667 213 l 1
 769 213 l 1
 769 1032 l 1
 984 1032 l 1
 984 203 l 1
 826 203 l 1
 826 -2 l 1
 611 -2 l 1
 611 203 l 1
 508 203 l 1
 508 -2 l 1
 293 -2 l 1
 293 203 l 1
 135 203 l 1
 135 1032 l 1
 350 1032 l 1
EndSplineSet
EndChar

StartChar: eight
Encoding: 56 56 49
Width: 1110
VWidth: 0
Flags: HW
LayerCount: 2
Fore
SplineSet
769 1227 m 1
 350 1227 l 1
 350 827 l 1
 769 827 l 1
 769 1227 l 1
293 1442 m 1
 826 1442 l 1
 826 1237 l 1
 984 1237 l 1
 984 817 l 1
 826 817 l 1
 826 623 l 1
 984 623 l 1
 984 203 l 1
 826 203 l 1
 826 -2 l 1
 293 -2 l 1
 293 203 l 1
 135 203 l 1
 135 623 l 1
 293 623 l 1
 293 817 l 1
 135 817 l 1
 135 1237 l 1
 293 1237 l 1
 293 1442 l 1
769 612 m 1
 350 612 l 1
 350 213 l 1
 769 213 l 1
 769 612 l 1
EndSplineSet
EndChar

StartChar: hyphen
Encoding: 45 45 50
Width: 1110
VWidth: 0
Flags: HW
LayerCount: 2
Fore
SplineSet
135 612 m 1
 135 827 l 1
 984 827 l 1
 984 612 l 1
 135 612 l 1
EndSplineSet
EndChar

StartChar: period
Encoding: 46 46 51
Width: 1110
VWidth: 0
Flags: HW
LayerCount: 2
Fore
SplineSet
452 -2 m 1
 452 213 l 1
 667 213 l 1
 667 -2 l 1
 452 -2 l 1
EndSplineSet
EndChar

StartChar: one
Encoding: 49 49 52
Width: 1110
VWidth: 0
Flags: HW
LayerCount: 2
Fore
SplineSet
293 1022 m 1
 293 1237 l 1
 452 1237 l 1
 452 1442 l 1
 667 1442 l 1
 667 213 l 1
 826 213 l 1
 826 -2 l 1
 293 -2 l 1
 293 213 l 1
 452 213 l 1
 452 1022 l 1
 293 1022 l 1
EndSplineSet
EndChar

StartChar: asciitilde
Encoding: 126 126 53
Width: 1110
VWidth: 0
Flags: HW
LayerCount: 2
Fore
SplineSet
135 1022 m 1
 135 1237 l 1
 293 1237 l 1
 293 1442 l 1
 508 1442 l 1
 508 1237 l 1
 667 1237 l 1
 667 1032 l 1
 769 1032 l 1
 769 1237 l 1
 984 1237 l 1
 984 1022 l 1
 826 1022 l 1
 826 817 l 1
 611 817 l 1
 611 1022 l 1
 452 1022 l 1
 452 1227 l 1
 350 1227 l 1
 350 1022 l 1
 135 1022 l 1
EndSplineSet
EndChar

StartChar: colon
Encoding: 58 58 54
Width: 1110
VWidth: 0
Flags: HW
LayerCount: 2
Fore
SplineSet
452 817 m 1
 452 1032 l 1
 667 1032 l 1
 667 817 l 1
 452 817 l 1
452 203 m 1
 452 418 l 1
 667 418 l 1
 667 203 l 1
 452 203 l 1
EndSplineSet
EndChar

StartChar: parenleft
Encoding: 40 40 55
Width: 1110
VWidth: 0
Flags: HW
LayerCount: 2
Fore
SplineSet
667 1227 m 1
 667 1022 l 1
 508 1022 l 1
 508 418 l 1
 667 418 l 1
 667 213 l 1
 826 213 l 1
 826 -2 l 1
 611 -2 l 1
 611 203 l 1
 452 203 l 1
 452 408 l 1
 293 408 l 1
 293 1032 l 1
 452 1032 l 1
 452 1237 l 1
 611 1237 l 1
 611 1442 l 1
 826 1442 l 1
 826 1227 l 1
 667 1227 l 1
EndSplineSet
EndChar

StartChar: question
Encoding: 63 63 56
Width: 1110
VWidth: 0
Flags: HW
LayerCount: 2
Fore
SplineSet
135 1022 m 1
 135 1237 l 1
 293 1237 l 1
 293 1442 l 1
 826 1442 l 1
 826 1237 l 1
 984 1237 l 1
 984 817 l 1
 826 817 l 1
 826 612 l 1
 667 612 l 1
 667 408 l 1
 452 408 l 1
 452 623 l 1
 611 623 l 1
 611 827 l 1
 769 827 l 1
 769 1227 l 1
 350 1227 l 1
 350 1022 l 1
 135 1022 l 1
452 -2 m 1
 452 213 l 1
 667 213 l 1
 667 -2 l 1
 452 -2 l 1
EndSplineSet
EndChar

StartChar: three
Encoding: 51 51 57
Width: 1110
VWidth: 0
Flags: HW
LayerCount: 2
Fore
SplineSet
135 1022 m 1
 135 1237 l 1
 293 1237 l 1
 293 1442 l 1
 826 1442 l 1
 826 1237 l 1
 984 1237 l 1
 984 817 l 1
 826 817 l 1
 826 623 l 1
 984 623 l 1
 984 203 l 1
 826 203 l 1
 826 -2 l 1
 293 -2 l 1
 293 203 l 1
 135 203 l 1
 135 418 l 1
 350 418 l 1
 350 213 l 1
 769 213 l 1
 769 612 l 1
 452 612 l 1
 452 827 l 1
 769 827 l 1
 769 1227 l 1
 350 1227 l 1
 350 1022 l 1
 135 1022 l 1
EndSplineSet
EndChar

StartChar: B
Encoding: 66 66 58
Width: 1110
VWidth: 0
Flags: HW
LayerCount: 2
Fore
SplineSet
135 1442 m 1
 826 1442 l 1
 826 1237 l 1
 984 1237 l 1
 984 817 l 1
 826 817 l 1
 826 623 l 1
 984 623 l 1
 984 203 l 1
 826 203 l 1
 826 -2 l 1
 135 -2 l 1
 135 1442 l 1
769 1227 m 1
 350 1227 l 1
 350 827 l 1
 769 827 l 1
 769 1227 l 1
769 612 m 1
 350 612 l 1
 350 213 l 1
 769 213 l 1
 769 612 l 1
EndSplineSet
EndChar

StartChar: F
Encoding: 70 70 59
Width: 1110
VWidth: 0
Flags: HW
LayerCount: 2
Fore
SplineSet
135 1442 m 1
 984 1442 l 1
 984 1227 l 1
 350 1227 l 1
 350 827 l 1
 826 827 l 1
 826 612 l 1
 350 612 l 1
 350 -2 l 1
 135 -2 l 1
 135 1442 l 1
EndSplineSet
EndChar

StartChar: J
Encoding: 74 74 60
Width: 1110
VWidth: 0
Flags: HW
LayerCount: 2
Fore
SplineSet
135 203 m 1
 135 418 l 1
 350 418 l 1
 350 213 l 1
 769 213 l 1
 769 1442 l 1
 984 1442 l 1
 984 203 l 1
 826 203 l 1
 826 -2 l 1
 293 -2 l 1
 293 203 l 1
 135 203 l 1
EndSplineSet
EndChar

StartChar: N
Encoding: 78 78 61
Width: 1110
VWidth: 0
Flags: HW
LayerCount: 2
Fore
SplineSet
350 1442 m 1
 350 1032 l 1
 508 1032 l 1
 508 827 l 1
 667 827 l 1
 667 623 l 1
 769 623 l 1
 769 1442 l 1
 984 1442 l 1
 984 -2 l 1
 769 -2 l 1
 769 408 l 1
 611 408 l 1
 611 612 l 1
 452 612 l 1
 452 817 l 1
 350 817 l 1
 350 -2 l 1
 135 -2 l 1
 135 1442 l 1
 350 1442 l 1
EndSplineSet
EndChar

StartChar: R
Encoding: 82 82 62
Width: 1110
VWidth: 0
Flags: HW
LayerCount: 2
Fore
SplineSet
135 1442 m 1
 826 1442 l 1
 826 1237 l 1
 984 1237 l 1
 984 817 l 1
 826 817 l 1
 826 612 l 1
 667 612 l 1
 667 418 l 1
 826 418 l 1
 826 213 l 1
 984 213 l 1
 984 -2 l 1
 769 -2 l 1
 769 203 l 1
 611 203 l 1
 611 408 l 1
 452 408 l 1
 452 612 l 1
 350 612 l 1
 350 -2 l 1
 135 -2 l 1
 135 1442 l 1
769 1227 m 1
 350 1227 l 1
 350 827 l 1
 769 827 l 1
 769 1227 l 1
EndSplineSet
EndChar

StartChar: bracketleft
Encoding: 91 91 63
Width: 1110
VWidth: 0
Flags: HW
LayerCount: 2
Fore
SplineSet
452 1442 m 1
 984 1442 l 1
 984 1227 l 1
 667 1227 l 1
 667 213 l 1
 984 213 l 1
 984 -2 l 1
 452 -2 l 1
 452 1442 l 1
EndSplineSet
EndChar

StartChar: V
Encoding: 86 86 64
Width: 1110
VWidth: 0
Flags: HW
LayerCount: 2
Fore
SplineSet
350 1442 m 1
 350 418 l 1
 508 418 l 1
 508 213 l 1
 611 213 l 1
 611 418 l 1
 769 418 l 1
 769 1442 l 1
 984 1442 l 1
 984 408 l 1
 826 408 l 1
 826 203 l 1
 667 203 l 1
 667 -2 l 1
 452 -2 l 1
 452 203 l 1
 293 203 l 1
 293 408 l 1
 135 408 l 1
 135 1442 l 1
 350 1442 l 1
EndSplineSet
EndChar

StartChar: asciicircum
Encoding: 94 94 65
Width: 1110
VWidth: 0
Flags: HW
LayerCount: 2
Fore
SplineSet
135 817 m 1
 135 1032 l 1
 293 1032 l 1
 293 1237 l 1
 452 1237 l 1
 452 1442 l 1
 667 1442 l 1
 667 1237 l 1
 826 1237 l 1
 826 1032 l 1
 984 1032 l 1
 984 817 l 1
 769 817 l 1
 769 1022 l 1
 611 1022 l 1
 611 1227 l 1
 508 1227 l 1
 508 1022 l 1
 350 1022 l 1
 350 817 l 1
 135 817 l 1
EndSplineSet
EndChar

StartChar: Z
Encoding: 90 90 66
Width: 1110
VWidth: 0
Flags: HW
LayerCount: 2
Fore
SplineSet
135 1227 m 1
 135 1442 l 1
 984 1442 l 1
 984 1022 l 1
 826 1022 l 1
 826 817 l 1
 667 817 l 1
 667 612 l 1
 508 612 l 1
 508 408 l 1
 350 408 l 1
 350 213 l 1
 984 213 l 1
 984 -2 l 1
 135 -2 l 1
 135 418 l 1
 293 418 l 1
 293 623 l 1
 452 623 l 1
 452 827 l 1
 611 827 l 1
 611 1032 l 1
 769 1032 l 1
 769 1227 l 1
 135 1227 l 1
EndSplineSet
EndChar

StartChar: b
Encoding: 98 98 67
Width: 1110
VWidth: 0
Flags: HW
LayerCount: 2
Fore
SplineSet
350 1442 m 1
 350 827 l 1
 452 827 l 1
 452 1032 l 1
 826 1032 l 1
 826 827 l 1
 984 827 l 1
 984 203 l 1
 826 203 l 1
 826 -2 l 1
 452 -2 l 1
 452 203 l 1
 350 203 l 1
 350 -2 l 1
 135 -2 l 1
 135 1442 l 1
 350 1442 l 1
769 817 m 1
 508 817 l 1
 508 612 l 1
 350 612 l 1
 350 418 l 1
 508 418 l 1
 508 213 l 1
 769 213 l 1
 769 817 l 1
EndSplineSet
EndChar

StartChar: f
Encoding: 102 102 68
Width: 1110
VWidth: 0
Flags: HW
LayerCount: 2
Fore
SplineSet
135 612 m 1
 135 827 l 1
 293 827 l 1
 293 1237 l 1
 452 1237 l 1
 452 1442 l 1
 667 1442 l 1
 667 1237 l 1
 826 1237 l 1
 826 1022 l 1
 611 1022 l 1
 611 1227 l 1
 508 1227 l 1
 508 827 l 1
 667 827 l 1
 667 612 l 1
 508 612 l 1
 508 -2 l 1
 293 -2 l 1
 293 612 l 1
 135 612 l 1
EndSplineSet
EndChar

StartChar: j
Encoding: 106 106 69
Width: 1110
VWidth: 0
Flags: HW
LayerCount: 2
Fore
SplineSet
769 1227 m 1
 769 1442 l 1
 984 1442 l 1
 984 1227 l 1
 769 1227 l 1
293 -207 m 1
 293 8 l 1
 508 8 l 1
 508 -197 l 1
 769 -197 l 1
 769 1032 l 1
 984 1032 l 1
 984 -207 l 1
 826 -207 l 1
 826 -412 l 1
 452 -412 l 1
 452 -207 l 1
 293 -207 l 1
EndSplineSet
EndChar

StartChar: n
Encoding: 110 110 70
Width: 1110
VWidth: 0
Flags: HW
LayerCount: 2
Fore
SplineSet
769 817 m 1
 508 817 l 1
 508 612 l 1
 350 612 l 1
 350 -2 l 1
 135 -2 l 1
 135 1032 l 1
 350 1032 l 1
 350 827 l 1
 452 827 l 1
 452 1032 l 1
 826 1032 l 1
 826 827 l 1
 984 827 l 1
 984 -2 l 1
 769 -2 l 1
 769 817 l 1
EndSplineSet
EndChar

StartChar: r
Encoding: 114 114 71
Width: 1110
VWidth: 0
Flags: HW
LayerCount: 2
Fore
SplineSet
769 817 m 1
 508 817 l 1
 508 612 l 1
 350 612 l 1
 350 -2 l 1
 135 -2 l 1
 135 1032 l 1
 350 1032 l 1
 350 827 l 1
 452 827 l 1
 452 1032 l 1
 826 1032 l 1
 826 827 l 1
 984 827 l 1
 984 612 l 1
 769 612 l 1
 769 817 l 1
EndSplineSet
EndChar

StartChar: nine
Encoding: 57 57 72
Width: 1110
VWidth: 0
Flags: HW
LayerCount: 2
Fore
SplineSet
293 -2 m 1
 293 213 l 1
 611 213 l 1
 611 418 l 1
 769 418 l 1
 769 612 l 1
 293 612 l 1
 293 817 l 1
 135 817 l 1
 135 1237 l 1
 293 1237 l 1
 293 1442 l 1
 826 1442 l 1
 826 1237 l 1
 984 1237 l 1
 984 408 l 1
 826 408 l 1
 826 203 l 1
 667 203 l 1
 667 -2 l 1
 293 -2 l 1
769 1227 m 1
 350 1227 l 1
 350 827 l 1
 769 827 l 1
 769 1227 l 1
EndSplineSet
EndChar

StartChar: v
Encoding: 118 118 73
Width: 1110
VWidth: 0
Flags: HW
LayerCount: 2
Fore
SplineSet
350 1032 m 1
 350 418 l 1
 508 418 l 1
 508 213 l 1
 611 213 l 1
 611 418 l 1
 769 418 l 1
 769 1032 l 1
 984 1032 l 1
 984 408 l 1
 826 408 l 1
 826 203 l 1
 667 203 l 1
 667 -2 l 1
 452 -2 l 1
 452 203 l 1
 293 203 l 1
 293 408 l 1
 135 408 l 1
 135 1032 l 1
 350 1032 l 1
EndSplineSet
EndChar

StartChar: z
Encoding: 122 122 74
Width: 1110
VWidth: 0
Flags: HW
LayerCount: 2
Fore
SplineSet
135 817 m 1
 135 1032 l 1
 984 1032 l 1
 984 817 l 1
 826 817 l 1
 826 612 l 1
 667 612 l 1
 667 408 l 1
 508 408 l 1
 508 213 l 1
 984 213 l 1
 984 -2 l 1
 135 -2 l 1
 135 213 l 1
 293 213 l 1
 293 418 l 1
 452 418 l 1
 452 623 l 1
 611 623 l 1
 611 817 l 1
 135 817 l 1
EndSplineSet
EndChar

StartChar: braceright
Encoding: 125 125 75
Width: 1110
VWidth: 0
Flags: HW
LayerCount: 2
Fore
SplineSet
135 1227 m 1
 135 1442 l 1
 508 1442 l 1
 508 1237 l 1
 667 1237 l 1
 667 827 l 1
 984 827 l 1
 984 612 l 1
 667 612 l 1
 667 203 l 1
 508 203 l 1
 508 -2 l 1
 135 -2 l 1
 135 213 l 1
 452 213 l 1
 452 623 l 1
 611 623 l 1
 611 817 l 1
 452 817 l 1
 452 1227 l 1
 135 1227 l 1
EndSplineSet
EndChar

StartChar: seven
Encoding: 55 55 76
Width: 1110
VWidth: 0
Flags: HW
LayerCount: 2
Fore
SplineSet
135 1227 m 1
 135 1442 l 1
 984 1442 l 1
 984 1022 l 1
 826 1022 l 1
 826 817 l 1
 667 817 l 1
 667 612 l 1
 508 612 l 1
 508 -2 l 1
 293 -2 l 1
 293 623 l 1
 452 623 l 1
 452 827 l 1
 611 827 l 1
 611 1032 l 1
 769 1032 l 1
 769 1227 l 1
 135 1227 l 1
EndSplineSet
EndChar

StartChar: semicolon
Encoding: 59 59 77
Width: 1110
VWidth: 0
Flags: HW
LayerCount: 2
Fore
SplineSet
452 817 m 1
 452 1032 l 1
 667 1032 l 1
 667 817 l 1
 452 817 l 1
293 -207 m 1
 293 8 l 1
 452 8 l 1
 452 418 l 1
 667 418 l 1
 667 -2 l 1
 508 -2 l 1
 508 -207 l 1
 293 -207 l 1
EndSplineSet
EndChar

StartChar: backslash
Encoding: 92 92 78
Width: 1110
VWidth: 0
Flags: HW
LayerCount: 2
Fore
SplineSet
350 1442 m 1
 350 1032 l 1
 508 1032 l 1
 508 827 l 1
 667 827 l 1
 667 623 l 1
 826 623 l 1
 826 418 l 1
 984 418 l 1
 984 -2 l 1
 769 -2 l 1
 769 408 l 1
 611 408 l 1
 611 612 l 1
 452 612 l 1
 452 817 l 1
 293 817 l 1
 293 1022 l 1
 135 1022 l 1
 135 1442 l 1
 350 1442 l 1
EndSplineSet
EndChar

StartChar: at
Encoding: 64 64 79
Width: 1110
VWidth: 0
Flags: HW
LayerCount: 2
Fore
SplineSet
769 1227 m 1
 508 1227 l 1
 508 1032 l 1
 667 1032 l 1
 667 827 l 1
 769 827 l 1
 769 1227 l 1
452 1442 m 1
 826 1442 l 1
 826 1237 l 1
 984 1237 l 1
 984 612 l 1
 667 612 l 1
 667 408 l 1
 452 408 l 1
 452 1022 l 1
 350 1022 l 1
 350 213 l 1
 984 213 l 1
 984 -2 l 1
 293 -2 l 1
 293 203 l 1
 135 203 l 1
 135 1032 l 1
 293 1032 l 1
 293 1237 l 1
 452 1237 l 1
 452 1442 l 1
EndSplineSet
EndChar

StartChar: greater
Encoding: 62 62 80
Width: 1110
VWidth: 0
Flags: HW
LayerCount: 2
Fore
SplineSet
135 1227 m 1
 135 1442 l 1
 350 1442 l 1
 350 1237 l 1
 508 1237 l 1
 508 1032 l 1
 667 1032 l 1
 667 827 l 1
 826 827 l 1
 826 612 l 1
 667 612 l 1
 667 408 l 1
 508 408 l 1
 508 203 l 1
 350 203 l 1
 350 -2 l 1
 135 -2 l 1
 135 213 l 1
 293 213 l 1
 293 418 l 1
 452 418 l 1
 452 623 l 1
 611 623 l 1
 611 817 l 1
 452 817 l 1
 452 1022 l 1
 293 1022 l 1
 293 1227 l 1
 135 1227 l 1
EndSplineSet
EndChar

StartChar: six
Encoding: 54 54 81
Width: 1110
VWidth: 0
Flags: HW
LayerCount: 2
Fore
SplineSet
826 1227 m 1
 508 1227 l 1
 508 1022 l 1
 350 1022 l 1
 350 827 l 1
 826 827 l 1
 826 623 l 1
 984 623 l 1
 984 203 l 1
 826 203 l 1
 826 -2 l 1
 293 -2 l 1
 293 203 l 1
 135 203 l 1
 135 1032 l 1
 293 1032 l 1
 293 1237 l 1
 452 1237 l 1
 452 1442 l 1
 826 1442 l 1
 826 1227 l 1
769 612 m 1
 350 612 l 1
 350 213 l 1
 769 213 l 1
 769 612 l 1
EndSplineSet
EndChar

StartChar: percent
Encoding: 37 37 82
Width: 1110
VWidth: 0
Flags: HW
LayerCount: 2
Fore
SplineSet
135 1442 m 1
 508 1442 l 1
 508 1022 l 1
 135 1022 l 1
 135 1442 l 1
984 1442 m 1
 984 1022 l 1
 826 1022 l 1
 826 817 l 1
 667 817 l 1
 667 612 l 1
 508 612 l 1
 508 408 l 1
 350 408 l 1
 350 -2 l 1
 135 -2 l 1
 135 418 l 1
 293 418 l 1
 293 623 l 1
 452 623 l 1
 452 827 l 1
 611 827 l 1
 611 1032 l 1
 769 1032 l 1
 769 1442 l 1
 984 1442 l 1
611 418 m 1
 984 418 l 1
 984 -2 l 1
 611 -2 l 1
 611 418 l 1
EndSplineSet
EndChar

StartChar: bracketright
Encoding: 93 93 83
Width: 1110
VWidth: 0
Flags: HW
LayerCount: 2
Fore
SplineSet
135 1227 m 1
 135 1442 l 1
 667 1442 l 1
 667 -2 l 1
 135 -2 l 1
 135 213 l 1
 452 213 l 1
 452 1227 l 1
 135 1227 l 1
EndSplineSet
EndChar

StartChar: A
Encoding: 65 65 84
Width: 1110
VWidth: 0
Flags: HW
LayerCount: 2
Fore
SplineSet
508 1227 m 1
 508 1022 l 1
 350 1022 l 1
 350 623 l 1
 769 623 l 1
 769 1022 l 1
 611 1022 l 1
 611 1227 l 1
 508 1227 l 1
452 1237 m 1
 452 1442 l 1
 667 1442 l 1
 667 1237 l 1
 826 1237 l 1
 826 1032 l 1
 984 1032 l 1
 984 -2 l 1
 769 -2 l 1
 769 408 l 1
 350 408 l 1
 350 -2 l 1
 135 -2 l 1
 135 1032 l 1
 293 1032 l 1
 293 1237 l 1
 452 1237 l 1
EndSplineSet
EndChar

StartChar: quotedbl
Encoding: 34 34 85
Width: 1110
VWidth: 0
Flags: HW
LayerCount: 2
Fore
SplineSet
508 1442 m 1
 508 817 l 1
 293 817 l 1
 293 1442 l 1
 508 1442 l 1
826 1442 m 1
 826 817 l 1
 611 817 l 1
 611 1442 l 1
 826 1442 l 1
EndSplineSet
EndChar

StartChar: E
Encoding: 69 69 86
Width: 1110
VWidth: 0
Flags: HW
LayerCount: 2
Fore
SplineSet
135 1442 m 1
 984 1442 l 1
 984 1227 l 1
 350 1227 l 1
 350 827 l 1
 826 827 l 1
 826 612 l 1
 350 612 l 1
 350 213 l 1
 984 213 l 1
 984 -2 l 1
 135 -2 l 1
 135 1442 l 1
EndSplineSet
EndChar

StartChar: I
Encoding: 73 73 87
Width: 1110
VWidth: 0
Flags: HW
LayerCount: 2
Fore
SplineSet
293 1227 m 1
 293 1442 l 1
 826 1442 l 1
 826 1227 l 1
 667 1227 l 1
 667 213 l 1
 826 213 l 1
 826 -2 l 1
 293 -2 l 1
 293 213 l 1
 452 213 l 1
 452 1227 l 1
 293 1227 l 1
EndSplineSet
EndChar

StartChar: numbersign
Encoding: 35 35 88
Width: 1110
VWidth: 0
Flags: HW
LayerCount: 2
Fore
SplineSet
135 817 m 1
 135 1032 l 1
 293 1032 l 1
 293 1442 l 1
 508 1442 l 1
 508 1032 l 1
 611 1032 l 1
 611 1442 l 1
 826 1442 l 1
 826 1032 l 1
 984 1032 l 1
 984 817 l 1
 826 817 l 1
 826 623 l 1
 984 623 l 1
 984 408 l 1
 826 408 l 1
 826 -2 l 1
 611 -2 l 1
 611 408 l 1
 508 408 l 1
 508 -2 l 1
 293 -2 l 1
 293 408 l 1
 135 408 l 1
 135 623 l 1
 293 623 l 1
 293 817 l 1
 135 817 l 1
508 817 m 1
 508 623 l 1
 611 623 l 1
 611 817 l 1
 508 817 l 1
EndSplineSet
EndChar

StartChar: M
Encoding: 77 77 89
Width: 1110
VWidth: 0
Flags: HW
LayerCount: 2
Fore
SplineSet
135 -2 m 1
 135 1442 l 1
 350 1442 l 1
 350 1237 l 1
 508 1237 l 1
 508 1032 l 1
 611 1032 l 1
 611 1237 l 1
 769 1237 l 1
 769 1442 l 1
 984 1442 l 1
 984 -2 l 1
 769 -2 l 1
 769 1022 l 1
 667 1022 l 1
 667 612 l 1
 452 612 l 1
 452 1022 l 1
 350 1022 l 1
 350 -2 l 1
 135 -2 l 1
EndSplineSet
EndChar

StartChar: Q
Encoding: 81 81 90
Width: 1110
VWidth: 0
Flags: HW
LayerCount: 2
Fore
SplineSet
452 408 m 1
 452 623 l 1
 667 623 l 1
 667 418 l 1
 769 418 l 1
 769 1227 l 1
 350 1227 l 1
 350 213 l 1
 611 213 l 1
 611 408 l 1
 452 408 l 1
293 1442 m 1
 826 1442 l 1
 826 1237 l 1
 984 1237 l 1
 984 408 l 1
 826 408 l 1
 826 213 l 1
 984 213 l 1
 984 -2 l 1
 769 -2 l 1
 769 203 l 1
 667 203 l 1
 667 -2 l 1
 293 -2 l 1
 293 203 l 1
 135 203 l 1
 135 1237 l 1
 293 1237 l 1
 293 1442 l 1
EndSplineSet
EndChar

StartChar: U
Encoding: 85 85 91
Width: 1110
VWidth: 0
Flags: HW
LayerCount: 2
Fore
SplineSet
350 1442 m 1
 350 213 l 1
 769 213 l 1
 769 1442 l 1
 984 1442 l 1
 984 203 l 1
 826 203 l 1
 826 -2 l 1
 293 -2 l 1
 293 203 l 1
 135 203 l 1
 135 1442 l 1
 350 1442 l 1
EndSplineSet
EndChar

StartChar: two
Encoding: 50 50 92
Width: 1110
VWidth: 0
Flags: HW
LayerCount: 2
Fore
SplineSet
135 1022 m 1
 135 1237 l 1
 293 1237 l 1
 293 1442 l 1
 826 1442 l 1
 826 1237 l 1
 984 1237 l 1
 984 817 l 1
 826 817 l 1
 826 612 l 1
 350 612 l 1
 350 213 l 1
 984 213 l 1
 984 -2 l 1
 135 -2 l 1
 135 623 l 1
 293 623 l 1
 293 827 l 1
 769 827 l 1
 769 1227 l 1
 350 1227 l 1
 350 1022 l 1
 135 1022 l 1
EndSplineSet
EndChar

StartChar: Y
Encoding: 89 89 93
Width: 1110
VWidth: 0
Flags: HW
LayerCount: 2
Fore
SplineSet
350 1442 m 1
 350 1032 l 1
 508 1032 l 1
 508 827 l 1
 611 827 l 1
 611 1032 l 1
 769 1032 l 1
 769 1442 l 1
 984 1442 l 1
 984 1022 l 1
 826 1022 l 1
 826 817 l 1
 667 817 l 1
 667 -2 l 1
 452 -2 l 1
 452 817 l 1
 293 817 l 1
 293 1022 l 1
 135 1022 l 1
 135 1442 l 1
 350 1442 l 1
EndSplineSet
EndChar

StartChar: grave
Encoding: 96 96 94
Width: 1110
VWidth: 0
Flags: HW
LayerCount: 2
Fore
SplineSet
293 1227 m 1
 293 1442 l 1
 508 1442 l 1
 508 1237 l 1
 667 1237 l 1
 667 1032 l 1
 826 1032 l 1
 826 817 l 1
 611 817 l 1
 611 1022 l 1
 452 1022 l 1
 452 1227 l 1
 293 1227 l 1
EndSplineSet
EndChar

StartChar: a
Encoding: 97 97 95
Width: 1110
VWidth: 0
Flags: HW
LayerCount: 2
Fore
SplineSet
611 817 m 1
 350 817 l 1
 350 213 l 1
 611 213 l 1
 611 418 l 1
 769 418 l 1
 769 612 l 1
 611 612 l 1
 611 817 l 1
293 1032 m 1
 667 1032 l 1
 667 827 l 1
 769 827 l 1
 769 1032 l 1
 984 1032 l 1
 984 -2 l 1
 769 -2 l 1
 769 203 l 1
 667 203 l 1
 667 -2 l 1
 293 -2 l 1
 293 203 l 1
 135 203 l 1
 135 827 l 1
 293 827 l 1
 293 1032 l 1
EndSplineSet
EndChar

StartChar: e
Encoding: 101 101 96
Width: 1110
VWidth: 0
Flags: HW
LayerCount: 2
Fore
SplineSet
769 817 m 1
 350 817 l 1
 350 623 l 1
 769 623 l 1
 769 817 l 1
293 1032 m 1
 826 1032 l 1
 826 827 l 1
 984 827 l 1
 984 408 l 1
 350 408 l 1
 350 213 l 1
 826 213 l 1
 826 -2 l 1
 293 -2 l 1
 293 203 l 1
 135 203 l 1
 135 827 l 1
 293 827 l 1
 293 1032 l 1
EndSplineSet
EndChar

StartChar: i
Encoding: 105 105 97
Width: 1110
VWidth: 0
Flags: HW
LayerCount: 2
Fore
SplineSet
452 1227 m 1
 452 1442 l 1
 667 1442 l 1
 667 1227 l 1
 452 1227 l 1
293 817 m 1
 293 1032 l 1
 667 1032 l 1
 667 213 l 1
 826 213 l 1
 826 -2 l 1
 293 -2 l 1
 293 213 l 1
 452 213 l 1
 452 817 l 1
 293 817 l 1
EndSplineSet
EndChar

StartChar: m
Encoding: 109 109 98
Width: 1110
VWidth: 0
Flags: HW
LayerCount: 2
Fore
SplineSet
135 1032 m 1
 508 1032 l 1
 508 827 l 1
 611 827 l 1
 611 1032 l 1
 826 1032 l 1
 826 827 l 1
 984 827 l 1
 984 -2 l 1
 769 -2 l 1
 769 817 l 1
 667 817 l 1
 667 -2 l 1
 452 -2 l 1
 452 817 l 1
 350 817 l 1
 350 -2 l 1
 135 -2 l 1
 135 1032 l 1
EndSplineSet
EndChar

StartChar: q
Encoding: 113 113 99
Width: 1110
VWidth: 0
Flags: HW
LayerCount: 2
Fore
SplineSet
611 817 m 1
 350 817 l 1
 350 213 l 1
 611 213 l 1
 611 418 l 1
 769 418 l 1
 769 612 l 1
 611 612 l 1
 611 817 l 1
293 1032 m 1
 667 1032 l 1
 667 827 l 1
 769 827 l 1
 769 1032 l 1
 984 1032 l 1
 984 -412 l 1
 769 -412 l 1
 769 203 l 1
 667 203 l 1
 667 -2 l 1
 293 -2 l 1
 293 203 l 1
 135 203 l 1
 135 827 l 1
 293 827 l 1
 293 1032 l 1
EndSplineSet
EndChar

StartChar: u
Encoding: 117 117 100
Width: 1110
VWidth: 0
Flags: HW
LayerCount: 2
Fore
SplineSet
350 1032 m 1
 350 213 l 1
 611 213 l 1
 611 418 l 1
 769 418 l 1
 769 1032 l 1
 984 1032 l 1
 984 -2 l 1
 769 -2 l 1
 769 203 l 1
 667 203 l 1
 667 -2 l 1
 293 -2 l 1
 293 203 l 1
 135 203 l 1
 135 1032 l 1
 350 1032 l 1
EndSplineSet
EndChar

StartChar: y
Encoding: 121 121 101
Width: 1110
VWidth: 0
Flags: HW
LayerCount: 2
Fore
SplineSet
293 -412 m 1
 293 -197 l 1
 769 -197 l 1
 769 203 l 1
 667 203 l 1
 667 -2 l 1
 293 -2 l 1
 293 203 l 1
 135 203 l 1
 135 1032 l 1
 350 1032 l 1
 350 213 l 1
 611 213 l 1
 611 418 l 1
 769 418 l 1
 769 1032 l 1
 984 1032 l 1
 984 -207 l 1
 826 -207 l 1
 826 -412 l 1
 293 -412 l 1
EndSplineSet
EndChar
